<?xml version="1.0" standalone="no"?>
<!DOCTYPE svg PUBLIC "-//W3C//DTD SVG 1.1//EN" "http://www.w3.org/Graphics/SVG/1.1/DTD/svg11.dtd" >
<svg xmlns="http://www.w3.org/2000/svg">
<metadata>Generated by IcoMoon</metadata>
<defs>
<font id="carletonStandardIcons" horiz-adv-x="1024">
<font-face units-per-em="1024" ascent="960" descent="-64" />
<missing-glyph horiz-adv-x="1024" />
<glyph unicode="&#x20;" d="" horiz-adv-x="512" />
<glyph unicode="&#xab;" d="M797.252 925.866l-644.676-462.748 644.676-492.984v268.584l-293.378 224.4 293.378 210.6z" />
<glyph unicode="&#xbb;" d="M247.774 925.866l644.674-462.748-644.674-492.984v268.584l293.376 224.4-293.376 210.6z" />
<glyph unicode="&#x2003;" d="M320 576h128v-128h-128zM512 576h128v-128h-128zM704 576h128v-128h-128zM128 192h128v-128h-128zM320 192h128v-128h-128zM512 192h128v-128h-128zM320 384h128v-128h-128zM512 384h128v-128h-128zM704 384h128v-128h-128zM128 384h128v-128h-128zM832 960v-64h-128v64h-448v-64h-128v64h-128v-1024h960v1024h-128zM896 0h-832v704h832v-704z" />
<glyph unicode="&#x2190;" d="M848.576 726.528h-353.216l-0.064 233.472-511.936-512 512.192-512-0.128 233.472h353.152z" horiz-adv-x="832" />
<glyph unicode="&#x2192;" d="M848.576 448l-511.936 512v-233.472h-353.28v-557.056h353.152l-0.064-233.472z" horiz-adv-x="832" />
<glyph unicode="&#x2197;" d="M726.272 384.87v-296.838h-579.014v579.014h296.838l108.832 108.838h-514.509v-796.691h796.691v514.509zM985.574 928h-351.84l117.754-117.741-373.728-373.715 118.003-118.010 373.722 373.722 116.090-116.083z" />
<glyph unicode="&#x2261;" d="M0 960h1024v-211.2h-1024zM0 550.4h1024v-211.2h-1024zM0 147.2h1024v-211.2h-1024z" />
<glyph unicode="&#x25a4;" d="M0 960h256v-256h-256zM379.586 960h256v-256h-256zM759.172 960h273.656v-256h-273.656zM0 571.586h256v-256h-256zM379.586 571.586h256v-256h-256zM759.172 571.586h273.656v-256h-273.656zM0 192h256v-256h-256zM379.586 192h256v-256h-256zM759.172 192h273.656v-256h-273.656z" horiz-adv-x="1032" />
<glyph unicode="&#x25b2;" d="M0 192h1024l-512 512z" />
<glyph unicode="&#x25b6;" d="M0 960v-1024l512 512z" horiz-adv-x="512" />
<glyph unicode="&#x25bc;" d="M512 192l512 512h-1024z" />
<glyph unicode="&#x25c0;" d="M0 448l512-512v1024z" horiz-adv-x="512" />
<glyph unicode="&#x25e2;" d="M1024 960v-1024h-1023.898z" />
<glyph unicode="&#x25e3;" d="M1023.974-64h-1023.974v1024.026z" />
<glyph unicode="&#x25e4;" d="M0-63.948v1023.948h1024z" />
<glyph unicode="&#x25e5;" d="M0.052 960h1023.948v-1023.948z" />
<glyph unicode="&#x260e;" d="M1014.656 686.848l-83.136 199.744h-264c0 0-159.936-96-270.336-188.352-190.272-159.232-264.384-281.472-337.664-387.264-73.344-105.728-49.856-188.032-49.856-188.032l152.768-120.128 333.184 249.344-98.24 129.216 234.88 258.56 82.176-105.728 300.224 152.64z" />
<glyph unicode="&#x2617;" d="M136.294 209.070c-75.196 0-136.292-61.334-136.292-136.076 0-75.154 61.1-135.802 136.292-135.802 75.466 0 136.494 60.648 136.494 135.802-0.002 74.742-61.024 136.076-136.494 136.076zM0.156 612.070v-196.258c127.784 0 247.958-49.972 338.458-140.512 90.384-90.318 140.282-211.036 140.282-339.3h197.122c-0.002 372.82-303.282 676.070-675.862 676.070zM0.388 960v-196.356c455.782 0 826.756-371.334 826.756-827.644h196.856c0 564.47-459.254 1024-1023.612 1024z" />
<glyph unicode="&#x2635;" d="M1024 352l-192 192v288h-128v-160l-192 192-512-512v-32h128v-320h320v192h128v-192h320v320h128z" />
<glyph unicode="&#x263a;" d="M819.2-64v155.276c0 78.022-63.61 139.124-141.638 139.124h-319.962c-78.016 0-140-61.1-140-139.124v-155.276h601.6zM262.892 546.132c0-140.66 114.028-254.688 254.688-254.688 140.66 0 254.688 114.028 254.688 254.688 0 140.66-114.028 254.688-254.688 254.688-140.66 0-254.688-114.028-254.688-254.688z" />
<glyph unicode="&#x265f;" d="M971.712 73.984l-250.112 250.048c41.984 63.744 66.624 139.84 66.624 221.824-0.064 222.784-180.544 403.456-403.456 403.456-222.656 0-403.392-180.672-403.392-403.456 0-222.784 180.8-403.456 403.392-403.456 70.016 0 135.872 17.856 193.152 49.216l255.744-255.744 138.048 138.112zM111.488 545.856c0 150.72 122.624 273.344 273.216 273.344s273.28-122.624 273.28-273.344c0-150.656-122.688-273.28-273.28-273.28s-273.216 122.56-273.216 273.28z" horiz-adv-x="960" />
<glyph unicode="&#x2691;" d="M927.808 960h-353.152l-574.656-574.592 449.344-449.408 574.656 574.656v353.152l-96.192 96.192zM765.376 587.008c-60.288 0-109.248 48.96-109.248 109.248s48.96 109.248 109.248 109.248c60.224 0 109.184-48.96 109.184-109.248s-48.96-109.248-109.184-109.248z" />
<glyph unicode="&#x2709;" d="M511.186 406.962l-511.186 398.81v-701.38h1024v677.050zM931.812 814.364h-811.398l392.26-305.128z" />
<glyph unicode="&#x270e;" d="M788.14 555.476c36.358-35.322 95.43-34.892 131.276 0.948l32.602 32.608c35.846 35.84 35.846 94.49 0 130.336l-166.49 166.496c-35.846 35.846-94.496 35.846-130.336 0l-36.908-36.916c-35.846-35.84-35.418-94.060 0.934-129.382l168.922-164.090zM309.51 40.826c18.304-16.486 28.672-39.904 32.954-61.356l477.69 477.696-75.52 73.356-471.418-471.424c13.338-2.566 25.632-8.666 36.294-18.272zM221.958 156.62c23.59-22.796 37.056-52.154 39.066-82.554l469.844 469.844-124.744 121.172-471.642-471.648c31.24-0.372 62.9-13.044 87.476-36.814zM279.526 7.54c-6.388 5.754-17.312 12.524-38.484 4.774l-44.396-16.244 15.546 44.652c10.278 29.53 2.292 60.82-21.37 83.692-23.13 22.348-55.084 30.234-81.402 20.052l-37.332-14.432 7.226 39.366c5.204 28.39 1.524 49.734-10.374 60.108-10.886 9.492-29.69 11.098-50.316 4.308l-0.608 1.85v-283.808h281.684c1.92 10.516-3.304 40.482-20.174 55.682zM98.38 263.276c11.252-9.804 22.944-26.010 26.764-52.032l467.212 467.212-73.328 71.24-467.456-467.45c17.99-1.618 34.226-8.006 46.808-18.97zM633.3 863.968l-80.18-80.18 301.132-292.524 80.186 80.18z" />
<glyph unicode="&#x275b;" d="M512 896c282.77 0 512-186.25 512-416 0-229.752-229.23-416-512-416-27.156 0-53.81 1.734-79.824 5.044-109.978-109.978-241.25-129.7-368.176-132.596v26.916c68.536 33.578 128 94.74 128 164.636 0 9.754-0.758 19.33-2.164 28.696-115.796 76.264-189.836 192.754-189.836 323.304 0 229.75 229.23 416 512 416z" />
<glyph unicode="&#x275d;" d="M1088 58.834c0-45.5 26.028-84.908 64-104.184v-15.938c-10.626-1.454-21.472-2.224-32.5-2.224-68.008 0-129.348 28.528-172.722 74.264-26.222-6.982-54.002-10.752-82.778-10.752-159.058 0-288 114.616-288 256 0 141.384 128.942 256 288 256 159.058 0 288-114.616 288-256 0-55.348-19.764-106.592-53.356-148.466-6.824-14.824-10.644-31.312-10.644-48.7zM512 960c278.458 0 504.992-180.614 511.836-405.52-49.182 21.92-103.586 33.52-159.836 33.52-95.56 0-185.816-33.446-254.138-94.178-70.846-62.972-109.862-147.434-109.862-237.822 0-44.672 9.544-87.888 27.736-127.788-5.228-0.126-10.468-0.212-15.736-0.212-27.156 0-53.81 1.734-79.824 5.044-109.978-109.978-241.25-129.7-368.176-132.596v26.916c68.536 33.578 128 94.74 128 164.636 0 9.754-0.758 19.33-2.164 28.696-115.796 76.264-189.836 192.754-189.836 323.304 0 229.75 229.23 416 512 416z" horiz-adv-x="1152" />
<glyph unicode="&#x2764;" d="M134.4 963.108v-1021.496h754.896v1021.496h-754.896zM283.134 808.764h491.104v-356.402h-491.104v356.402zM724.758 186.816c-36.146 0-65.486 29.15-65.486 65.39 0 36.192 29.342 65.438 65.486 65.438 36.102 0 65.438-29.246 65.438-65.438 0-36.244-29.338-65.39-65.438-65.39z" />
<glyph unicode="&#x2766;" d="M1051.84-50.88h-887.36v2.304c-84.928 1.216-153.664 70.72-153.664 155.904l0.064 608.128h254.208v231.424h942.72v-841.792c0-86.016-69.952-155.968-155.968-155.968zM285.952 6.848h765.824c54.208 0 98.304 44.096 98.304 98.304v784.064h-827.328v-781.888c0-38.208-13.824-73.344-36.8-100.48zM68.544 657.728v-550.4c0-54.208 44.096-98.304 98.304-98.304s98.304 44.096 98.304 98.304l-0.064 550.4h-196.544zM403.392 798.72h668.736v-346.24h-668.736zM403.392 392.704h668.736v-57.664h-668.736zM403.392 279.68h668.736v-57.664h-668.736zM403.392 166.784h668.736v-57.728h-668.736z" horiz-adv-x="1216" />
</font>
</defs>
</svg>
