<svg version="1.1" x="0px" y="0px" viewBox="-703 1065 32 32">
<title>Calendar (30)</title>
<path d="M-677,1065v2h-4v-2h-14v2h-4v-2h-4v32h30v-32H-677z M-675,1095h-26v-22h26V1095z"/>
<g>
	<path d="M-699.1,1088.3l1.4-1.8c0.9,0.9,2.3,1.4,3.5,1.4c1.5,0,2.4-0.7,2.4-1.6c0-1-0.8-1.5-2.5-1.5c-0.5,0-1.4,0-1.6,0v-2.4
		c0.2,0,1.1,0,1.6,0c1.4,0,2.3-0.4,2.3-1.3c0-1-1-1.5-2.4-1.5c-1.2,0-2.3,0.5-3.2,1.3l-1.3-1.7c1-1.2,2.6-2,4.8-2
		c3,0,4.8,1.3,4.8,3.4c0,1.6-1.4,2.6-2.8,2.9c1.3,0.1,3,1.1,3,3c0,2.2-2,3.7-5,3.7C-696.4,1090.3-698.2,1089.4-699.1,1088.3z"/>
	<path d="M-687.7,1083.8c0-3.3,1.6-6.5,5.2-6.5c3.6,0,5.2,3.3,5.2,6.5s-1.6,6.6-5.2,6.6C-686.1,1090.3-687.7,1087-687.7,1083.8z
		 M-679.9,1083.8c0-2.3-0.7-4.1-2.5-4.1c-1.8,0-2.5,1.8-2.5,4.1c0,2.3,0.7,4.2,2.5,4.2C-680.6,1087.9-679.9,1086.1-679.9,1083.8z"/>
</g>
</svg>
