<svg version="1.1" x="0px" y="0px" viewBox="-703 1065 32 32">
<title>Calendar (10)</title>
<path d="M-677,1065v2h-4v-2h-14v2h-4v-2h-4v32h30v-32H-677z M-675,1095h-26v-22h26V1095z"/>
<g>
	<path d="M-693.9,1090.1v-9.2l-2.1,2.1l-1.5-1.6l4-4h2.4v12.7H-693.9z"/>
	<path d="M-689.3,1083.8c0-3.3,1.6-6.5,5.2-6.5c3.6,0,5.2,3.3,5.2,6.5s-1.6,6.6-5.2,6.6C-687.7,1090.3-689.3,1087-689.3,1083.8z
		 M-681.6,1083.8c0-2.3-0.7-4.1-2.5-4.1c-1.8,0-2.5,1.8-2.5,4.1c0,2.3,0.7,4.2,2.5,4.2C-682.3,1087.9-681.6,1086.1-681.6,1083.8z"/>
</g>
</svg>
