<svg version="1.1" x="0px" y="0px" viewBox="-703 1065 32 32">
<title>Calendar (9)</title>
<path d="M-677,1065v2h-4v-2h-14v2h-4v-2h-4v32h30v-32H-677z M-675,1095h-26v-22h26V1095z"/>
<g>
	<path d="M-692.5,1089l1.2-2.1c0.7,0.6,1.4,1,2.5,1c2.1,0,3.2-1.7,3.2-3.6c0-0.1,0-0.2,0-0.3c-0.6,0.9-1.9,1.6-3.3,1.6
		c-2.3,0-4.3-1.4-4.3-4.1c0-2.5,2-4.4,4.9-4.4c3.8,0,5.5,3,5.5,6.6c0,3.8-2.1,6.5-5.9,6.5C-690.3,1090.3-691.6,1089.8-692.5,1089z
		 M-685.6,1082.2c-0.1-1.2-0.8-2.6-2.6-2.6c-1.4,0-2.2,1-2.2,1.9c0,1.3,1.2,1.9,2.3,1.9C-687.2,1083.4-686.2,1082.9-685.6,1082.2z"
		/>
</g>
</svg>
