<svg width="32" height="32" version="1.1" id="Layer_1" xmlns="http://www.w3.org/2000/svg" xmlns:xlink="http://www.w3.org/1999/xlink" x="0px" y="0px"
	 viewBox="-703 1065 32 32" style="enable-background:new -703 1065 32 32;" xml:space="preserve">
<title>Calendar (13)</title>
<path d="M-677,1065v2h-4v-2h-14v2h-4v-2h-4v32h30v-32H-677z M-675,1095h-26v-22h26V1095z"/>
<g>
	<path d="M-693.7,1090.1v-9.2l-2.1,2.1l-1.5-1.6l4-4h2.4v12.7H-693.7z"/>
	<path d="M-689.3,1088.3l1.4-1.8c0.9,0.9,2.3,1.4,3.5,1.4c1.5,0,2.4-0.7,2.4-1.6c0-1-0.8-1.5-2.5-1.5c-0.5,0-1.4,0-1.6,0v-2.4
		c0.2,0,1.1,0,1.6,0c1.4,0,2.3-0.4,2.3-1.3c0-1-1-1.5-2.4-1.5c-1.2,0-2.3,0.5-3.2,1.3l-1.3-1.7c1-1.2,2.6-2,4.8-2
		c3,0,4.8,1.3,4.8,3.4c0,1.6-1.4,2.6-2.8,2.9c1.3,0.1,3,1.1,3,3c0,2.2-2,3.7-5,3.7C-686.6,1090.3-688.4,1089.4-689.3,1088.3z"/>
</g>
</svg>
