<svg version="1.1" x="0px" y="0px" viewBox="-703 1065 32 32">
<title>Calendar (24)</title>
<path d="M-677,1065v2h-4v-2h-14v2h-4v-2h-4v32h30v-32H-677z M-675,1095h-26v-22h26V1095z"/>
<g>
	<path d="M-698.5,1090.1v-2.1c5.2-3.8,6.7-5.1,6.7-6.7c0-1.1-1-1.7-2.1-1.7c-1.4,0-2.5,0.6-3.4,1.5l-1.5-1.8
		c1.2-1.4,3.1-2.1,4.9-2.1c2.7,0,4.8,1.5,4.8,4c0,2.2-1.8,4-5.1,6.4h5.2v2.4H-698.5z"/>
	<path d="M-681.4,1090.1v-2.6h-6.1v-2.1l5-7.9h3.7v7.7h1.6v2.4h-1.6v2.6H-681.4z M-681.4,1079.8l-3.4,5.3h3.4V1079.8z"/>
</g>
</svg>
