<svg version="1.1" x="0px" y="0px" viewBox="-703 1065 32 32">
<title>Calendar (8)</title>
<path d="M-677,1065v2h-4v-2h-14v2h-4v-2h-4v32h30v-32H-677z M-675,1095h-26v-22h26V1095z"/>
<g>
	<path d="M-693.1,1086.8c0-1.5,1.2-2.7,2.7-3.2c-1.4-0.5-2.5-1.4-2.5-3c0-2.4,2.5-3.3,4.9-3.3c2.3,0,4.9,1,4.9,3.3
		c0,1.6-1.1,2.5-2.5,3c1.5,0.5,2.7,1.7,2.7,3.2c0,2.4-2.4,3.5-5.1,3.5C-690.7,1090.3-693.1,1089.2-693.1,1086.8z M-685.6,1086.5
		c0-1.1-1.6-1.6-2.4-1.7c-0.8,0.1-2.4,0.6-2.4,1.7c0,0.9,1,1.5,2.4,1.5C-686.7,1088-685.6,1087.4-685.6,1086.5z M-685.9,1081
		c0-0.9-0.9-1.4-2.1-1.4c-1.3,0-2.1,0.5-2.1,1.4c0,0.9,1.4,1.4,2.1,1.5C-687.2,1082.4-685.9,1081.9-685.9,1081z"/>
</g>
</svg>
