<svg version="1.1" x="0px" y="0px" viewBox="-703 1065 32 32">
<title>Calendar (19)</title>
<path d="M-677,1065v2h-4v-2h-14v2h-4v-2h-4v32h30v-32H-677z M-675,1095h-26v-22h26V1095z"/>
<g>
	<path d="M-693.8,1090.1v-9.2l-2.1,2.1l-1.5-1.6l4-4h2.4v12.7H-693.8z"/>
	<path d="M-688.6,1089l1.2-2.1c0.7,0.6,1.4,1,2.5,1c2.1,0,3.2-1.7,3.2-3.6c0-0.1,0-0.2,0-0.3c-0.6,0.9-1.9,1.6-3.3,1.6
		c-2.3,0-4.3-1.4-4.3-4.1c0-2.5,2-4.4,4.9-4.4c3.8,0,5.5,3,5.5,6.6c0,3.8-2.1,6.5-5.9,6.5C-686.4,1090.3-687.7,1089.8-688.6,1089z
		 M-681.7,1082.2c-0.1-1.2-0.8-2.6-2.6-2.6c-1.4,0-2.2,1-2.2,1.9c0,1.3,1.2,1.9,2.3,1.9C-683.3,1083.4-682.3,1082.9-681.7,1082.2z"
		/>
</g>
</svg>
