<svg version="1.1" x="0px" y="0px" viewBox="-703 1065 32 32">
<title>Calendar (25)</title>
<path d="M-677,1065v2h-4v-2h-14v2h-4v-2h-4v32h30v-32H-677z M-675,1095h-26v-22h26V1095z"/>
<g>
	<path d="M-698.6,1090.1v-2.1c5.2-3.8,6.7-5.1,6.7-6.7c0-1.1-1-1.7-2.1-1.7c-1.4,0-2.5,0.6-3.4,1.5l-1.5-1.8
		c1.2-1.4,3.1-2.1,4.9-2.1c2.7,0,4.8,1.5,4.8,4c0,2.2-1.8,4-5.1,6.4h5.2v2.4H-698.6z"/>
	<path d="M-687.1,1088.4l1.5-1.9c0.9,0.9,2,1.4,3.4,1.4c1.5,0,2.4-0.9,2.4-1.9c0-1.1-0.8-1.9-2.3-1.9c-1,0-1.9,0.3-2.7,1l-1.9-0.5
		v-7.3h8.7v2.4h-6v3.1c0.6-0.6,1.6-1.1,2.8-1.1c2.1,0,4.1,1.5,4.1,4.1c0,2.7-2,4.4-5.1,4.4C-684.5,1090.3-686.1,1089.6-687.1,1088.4
		z"/>
</g>
</svg>
