<svg version="1.1" x="0px" y="0px" viewBox="-703 1065 32 32">
<title>Calendar (28)</title>
<path d="M-677,1065v2h-4v-2h-14v2h-4v-2h-4v32h30v-32H-677z M-675,1095h-26v-22h26V1095z"/>
<g>
	<path d="M-698.6,1090.1v-2.1c5.2-3.8,6.7-5.1,6.7-6.7c0-1.1-1-1.7-2.1-1.7c-1.4,0-2.5,0.6-3.4,1.5l-1.5-1.8
		c1.2-1.4,3.1-2.1,4.9-2.1c2.7,0,4.8,1.5,4.8,4c0,2.2-1.8,4-5.1,6.4h5.2v2.4H-698.6z"/>
	<path d="M-687.4,1086.8c0-1.5,1.2-2.7,2.7-3.2c-1.4-0.5-2.5-1.4-2.5-3c0-2.4,2.5-3.3,4.9-3.3c2.3,0,4.9,1,4.9,3.3
		c0,1.6-1.1,2.5-2.5,3c1.5,0.5,2.7,1.7,2.7,3.2c0,2.4-2.4,3.5-5.1,3.5C-685,1090.3-687.4,1089.2-687.4,1086.8z M-679.9,1086.5
		c0-1.1-1.6-1.6-2.4-1.7c-0.8,0.1-2.4,0.6-2.4,1.7c0,0.9,1,1.5,2.4,1.5C-681,1088-679.9,1087.4-679.9,1086.5z M-680.2,1081
		c0-0.9-0.9-1.4-2.1-1.4c-1.3,0-2.1,0.5-2.1,1.4c0,0.9,1.4,1.4,2.1,1.5C-681.5,1082.4-680.2,1081.9-680.2,1081z"/>
</g>
</svg>
