<svg version="1.1" x="0px" y="0px" viewBox="-703 1065 32 32">
<title>Calendar (26)</title>
<path d="M-677,1065v2h-4v-2h-14v2h-4v-2h-4v32h30v-32H-677z M-675,1095h-26v-22h26V1095z"/>
<g>
	<path d="M-698.6,1090.1v-2.1c5.2-3.8,6.7-5.1,6.7-6.7c0-1.1-1-1.7-2.1-1.7c-1.4,0-2.5,0.6-3.4,1.5l-1.5-1.8
		c1.2-1.4,3.1-2.1,4.9-2.1c2.7,0,4.8,1.5,4.8,4c0,2.2-1.8,4-5.1,6.4h5.2v2.4H-698.6z"/>
	<path d="M-687.4,1083.8c0-3.8,2.2-6.6,5.9-6.6c1.5,0,2.8,0.5,3.7,1.3l-1.2,2.1c-0.7-0.6-1.4-1-2.5-1c-1.9,0-3.2,1.6-3.2,3.6
		c0,0.1,0,0.2,0,0.3c0.6-0.9,1.9-1.6,3.2-1.6c2.3,0,4.3,1.4,4.3,4.1c0,2.5-2,4.3-4.8,4.3C-685.8,1090.3-687.4,1087.3-687.4,1083.8z
		 M-679.9,1086.1c0-1.3-1.1-1.9-2.4-1.9c-1,0-1.9,0.4-2.5,1.2c0.1,1.2,0.8,2.6,2.6,2.6C-680.6,1087.9-679.9,1086.9-679.9,1086.1z"/>
</g>
</svg>
