<svg version="1.1" x="0px" y="0px" viewBox="-703 1065 32 32">
<title>Calendar (20)</title>
<path d="M-677,1065v2h-4v-2h-14v2h-4v-2h-4v32h30v-32H-677z M-675,1095h-26v-22h26V1095z"/>
<g>
	<path d="M-698.7,1090.1v-2.1c5.2-3.8,6.7-5.1,6.7-6.7c0-1.1-1-1.7-2.1-1.7c-1.4,0-2.5,0.6-3.4,1.5l-1.5-1.8
		c1.2-1.4,3.1-2.1,4.9-2.1c2.7,0,4.8,1.5,4.8,4c0,2.2-1.8,4-5.1,6.4h5.2v2.4H-698.7z"/>
	<path d="M-687.5,1083.8c0-3.3,1.6-6.5,5.2-6.5c3.6,0,5.2,3.3,5.2,6.5s-1.6,6.6-5.2,6.6C-685.9,1090.3-687.5,1087-687.5,1083.8z
		 M-679.8,1083.8c0-2.3-0.7-4.1-2.5-4.1c-1.8,0-2.5,1.8-2.5,4.1c0,2.3,0.7,4.2,2.5,4.2C-680.5,1087.9-679.8,1086.1-679.8,1083.8z"/>
</g>
</svg>
